<?xml version="1.0" encoding="utf-8"?>
<svg viewBox="0 0 48 48" width="144px" height="144px" xmlns="http://www.w3.org/2000/svg">
  <path fill="#f06292" d="M 40.489 19.112 C 38.951 19.12 37.619 19.489 36.503 20.04 C 36.095 19.225 35.681 18.508 35.612 17.975 C 35.531 17.353 35.437 16.981 35.535 16.24 C 35.633 15.499 36.062 14.449 36.056 14.37 C 36.05 14.291 35.96 13.914 35.073 13.907 C 34.186 13.901 33.427 14.078 33.338 14.312 C 33.249 14.546 33.078 15.073 32.972 15.623 C 32.817 16.427 31.201 19.296 30.284 20.796 C 29.984 20.21 29.729 19.694 29.676 19.286 C 29.595 18.664 29.501 18.292 29.599 17.551 C 29.697 16.81 30.126 15.76 30.12 15.681 C 30.114 15.602 30.024 15.225 29.137 15.218 C 28.25 15.212 27.491 15.389 27.402 15.623 C 27.313 15.857 27.217 16.404 27.036 16.934 C 26.854 17.463 24.707 22.248 24.144 23.489 C 23.857 24.121 23.608 24.629 23.432 24.975 C 23.431 24.974 23.431 24.973 23.431 24.973 C 23.431 24.973 23.42 24.996 23.402 25.035 C 23.251 25.33 23.162 25.493 23.162 25.493 C 23.162 25.493 23.163 25.495 23.165 25.499 C 23.045 25.716 22.917 25.917 22.854 25.917 C 22.81 25.917 22.721 25.34 22.873 24.548 C 23.193 22.888 23.96 20.3 23.953 20.21 C 23.949 20.164 24.096 19.713 23.452 19.477 C 22.826 19.248 22.603 19.63 22.546 19.631 C 22.491 19.632 22.45 19.766 22.45 19.766 C 22.45 19.766 23.147 16.855 21.12 16.855 C 19.852 16.855 18.096 18.242 17.231 19.499 C 16.685 19.797 15.516 20.435 14.277 21.116 C 13.801 21.378 13.315 21.645 12.854 21.899 C 12.823 21.864 12.791 21.83 12.759 21.795 C 10.3 19.172 5.756 17.317 5.948 13.79 C 6.018 12.508 6.464 9.132 14.681 5.038 C 21.412 1.684 26.801 2.607 27.732 4.652 C 29.062 7.575 24.852 13.006 17.862 13.79 C 15.199 14.089 13.796 13.056 13.447 12.672 C 13.08 12.267 13.025 12.249 12.888 12.325 C 12.665 12.449 12.806 12.806 12.888 13.019 C 13.097 13.562 13.953 14.525 15.413 15.005 C 16.698 15.427 19.825 15.658 23.606 14.195 C 27.842 12.557 31.149 7.999 30.177 4.19 C 29.189 0.316 22.765 -0.958 16.685 1.202 C 13.062 2.488 9.145 4.506 6.328 7.14 C 2.979 10.272 2.445 12.999 2.665 14.138 C 3.447 18.186 9.026 20.822 11.26 22.775 C 11.15 22.836 11.046 22.893 10.952 22.945 C 9.832 23.499 5.579 25.725 4.515 28.076 C 3.308 30.743 4.707 32.657 5.633 32.915 C 8.502 33.713 11.446 32.277 13.029 29.917 C 14.611 27.558 14.418 24.485 13.692 23.083 C 13.683 23.066 13.673 23.049 13.664 23.031 C 13.953 22.86 14.248 22.686 14.54 22.514 C 15.11 22.179 15.67 21.867 16.155 21.603 C 15.883 22.347 15.684 23.24 15.581 24.529 C 15.459 26.043 16.08 28 16.892 28.77 C 17.25 29.109 17.68 29.117 17.952 29.117 C 18.897 29.117 19.328 28.331 19.803 27.401 C 20.385 26.261 20.902 24.933 20.902 24.933 C 20.902 24.933 20.254 28.519 22.02 28.519 C 22.664 28.519 23.311 27.684 23.6 27.259 C 23.601 27.264 23.601 27.266 23.601 27.266 C 23.601 27.266 23.618 27.238 23.651 27.183 C 23.718 27.081 23.756 27.016 23.756 27.016 C 23.756 27.016 23.757 27.009 23.759 26.997 C 24.018 26.548 24.592 25.524 25.452 23.835 C 26.564 21.653 27.63 18.919 27.63 18.919 C 27.63 18.919 27.729 19.587 28.054 20.693 C 28.245 21.343 28.651 22.062 28.972 22.752 C 28.714 23.11 28.556 23.315 28.556 23.315 C 28.556 23.315 28.557 23.319 28.56 23.326 C 28.354 23.6 28.123 23.895 27.881 24.183 C 27.003 25.228 25.958 26.422 25.818 26.766 C 25.653 27.172 25.692 27.47 26.011 27.711 C 26.244 27.886 26.658 27.914 27.091 27.885 C 27.88 27.832 28.434 27.636 28.708 27.517 C 29.135 27.366 29.632 27.129 30.098 26.786 C 30.959 26.153 31.478 25.248 31.428 24.048 C 31.4 23.387 31.19 22.732 30.923 22.114 C 31.001 22.002 31.079 21.888 31.158 21.774 C 32.515 19.79 33.568 17.61 33.568 17.61 C 33.568 17.61 33.667 18.278 33.992 19.384 C 34.156 19.943 34.481 20.554 34.773 21.152 C 33.497 22.189 32.706 23.394 32.431 24.184 C 31.923 25.646 32.321 26.308 33.067 26.459 C 33.405 26.527 33.883 26.372 34.242 26.22 C 34.689 26.072 35.226 25.825 35.728 25.456 C 36.589 24.823 37.417 23.937 37.367 22.738 C 37.344 22.192 37.196 21.65 36.995 21.13 C 38.077 20.679 39.477 20.429 41.261 20.637 C 45.088 21.084 45.838 23.473 45.695 24.473 C 45.551 25.473 44.749 26.023 44.48 26.189 C 44.212 26.355 44.13 26.413 44.152 26.536 C 44.185 26.715 44.309 26.709 44.538 26.67 C 44.853 26.617 46.547 25.857 46.62 24.011 C 46.711 21.665 44.466 19.091 40.489 19.112 Z M 10.992 29.056 C 9.724 30.439 7.954 30.961 7.194 30.521 C 6.374 30.046 6.699 28.01 8.254 26.542 C 9.202 25.648 10.426 24.824 11.238 24.317 C 11.423 24.206 11.694 24.043 12.024 23.845 C 12.079 23.814 12.11 23.797 12.11 23.797 L 12.109 23.795 C 12.173 23.757 12.238 23.718 12.305 23.677 C 12.872 25.766 12.323 27.605 10.992 29.056 Z M 20.227 22.779 C 19.786 23.855 18.862 26.609 18.299 26.461 C 17.816 26.334 17.522 24.241 18.203 22.181 C 18.545 21.144 19.277 19.905 19.707 19.424 C 20.399 18.65 21.161 18.397 21.346 18.711 C 21.581 19.111 20.504 22.104 20.227 22.779 Z M 27.856 26.419 C 27.669 26.517 27.497 26.578 27.418 26.531 C 27.359 26.496 27.495 26.367 27.495 26.367 C 27.495 26.367 28.449 25.34 28.825 24.873 C 29.044 24.601 29.297 24.278 29.573 23.918 C 29.575 23.954 29.576 23.99 29.576 24.025 C 29.574 25.255 28.386 26.085 27.856 26.419 Z M 33.733 25.079 C 33.593 24.98 33.617 24.659 34.076 23.658 C 34.256 23.265 34.668 22.604 35.382 21.972 C 35.465 22.232 35.515 22.481 35.514 22.713 C 35.505 24.261 34.401 24.839 33.733 25.079 Z"/>
</svg>